<?xml version="1.0" encoding="UTF-8" standalone="no"?>
<!-- Created with Inkscape (http://www.inkscape.org/) -->

<svg
   width="211.66667mm"
   height="211.66667mm"
   viewBox="0 0 211.66667 211.66667"
   version="1.1"
   id="svg1"
   inkscape:export-filename="cco.png"
   inkscape:export-xdpi="17.104378"
   inkscape:export-ydpi="17.104378"
   xmlns:inkscape="http://www.inkscape.org/namespaces/inkscape"
   xmlns:sodipodi="http://sodipodi.sourceforge.net/DTD/sodipodi-0.dtd"
   xmlns="http://www.w3.org/2000/svg"
   xmlns:svg="http://www.w3.org/2000/svg">
  <sodipodi:namedview
     id="namedview1"
     pagecolor="#ffffff"
     bordercolor="#000000"
     borderopacity="0"
     inkscape:showpageshadow="2"
     inkscape:pageopacity="0.0"
     inkscape:pagecheckerboard="0"
     inkscape:deskcolor="#d1d1d1"
     inkscape:document-units="mm"
     showguides="false">
    <inkscape:page
       x="0"
       y="0"
       width="211.66667"
       height="211.66667"
       id="page2"
       margin="0"
       bleed="0" />
  </sodipodi:namedview>
  <defs
     id="defs1">
    <rect
       x="231.12773"
       y="395.35007"
       width="308.17032"
       height="51.699623"
       id="rect7" />
    <inkscape:path-effect
       effect="mirror_symmetry"
       start_point="105.83334,0"
       end_point="105.83334,211.66667"
       center_point="105.83334,105.83334"
       id="path-effect7"
       is_visible="true"
       lpeversion="1.2"
       lpesatellites=""
       mode="vertical"
       discard_orig_path="false"
       fuse_paths="false"
       oposite_fuse="false"
       split_items="false"
       split_open="false"
       link_styles="false" />
  </defs>
  <g
     inkscape:label="Layer 1"
     inkscape:groupmode="layer"
     id="layer1">
    <g
       id="g4"
       inkscape:path-effect="#path-effect7">
      <path
         style="fill:#051230;fill-opacity:1;stroke:#000000;stroke-width:0;stroke-linecap:round;stroke-dasharray:none"
         d="m 85.344827,184.72414 c 0,0 -135.985867,7.78251 -17.827588,-132.000003 0,0 -52.344826,99.379313 17.827588,132.000003 z m 40.977013,0 c 0,0 135.98587,7.78251 17.82759,-132.000003 0,0 52.34483,99.379313 -17.82759,132.000003 z"
         id="path2"
         sodipodi:nodetypes="cc"
         inkscape:original-d="m 85.344827,184.72414 c 0,0 -135.985867,7.78251 -17.827588,-132.000003 0,0 -52.344826,99.379313 17.827588,132.000003 z" />
      <path
         style="fill:#000000;fill-opacity:0;stroke:#323c6b;stroke-width:0.881;stroke-linecap:round;stroke-dasharray:none;stroke-opacity:1"
         id="path3"
         sodipodi:type="arc"
         sodipodi:cx="48.548931"
         sodipodi:cy="168.01543"
         sodipodi:rx="11"
         sodipodi:ry="11"
         d="m 59.548931,168.01543 c 0,6.07513 -4.924868,11 -11,11 -6.075132,0 -11,-4.92487 -11,-11 0,-6.07514 4.924868,-11 11,-11 6.075132,0 11,4.92486 11,11 z m 92.568809,0 c 0,6.07513 4.92487,11 11,11 6.07513,0 11,-4.92487 11,-11 0,-6.07514 -4.92487,-11 -11,-11 -6.07513,0 -11,4.92486 -11,11 z" />
      <path
         style="fill:#000000;fill-opacity:0;stroke:#323c6b;stroke-width:0.881;stroke-linecap:round;stroke-dasharray:none;stroke-opacity:1"
         id="path3-8"
         sodipodi:type="arc"
         sodipodi:cx="34.687984"
         sodipodi:cy="142.99643"
         sodipodi:rx="13"
         sodipodi:ry="13"
         d="m 47.687984,142.99643 c 0,7.1797 -5.820298,13 -13,13 -7.179701,0 -13,-5.8203 -13,-13 0,-7.1797 5.820299,-13 13,-13 7.179702,0 13,5.8203 13,13 z m 116.290706,0 c 0,7.1797 5.8203,13 13,13 7.1797,0 13,-5.8203 13,-13 0,-7.1797 -5.8203,-13 -13,-13 -7.1797,0 -13,5.8203 -13,13 z" />
      <path
         style="fill:#000000;fill-opacity:0;stroke:#323c6b;stroke-width:0.881;stroke-linecap:round;stroke-dasharray:none;stroke-opacity:1"
         id="path3-5"
         sodipodi:type="arc"
         sodipodi:cx="37.668377"
         sodipodi:cy="116.65372"
         sodipodi:rx="11"
         sodipodi:ry="11"
         d="m 48.668377,116.65372 c 0,6.07513 -4.924868,11 -11,11 -6.075132,0 -11,-4.92487 -11,-11 0,-6.07514 4.924868,-11 11,-11 6.075132,0 11,4.92486 11,11 z m 114.329913,0 c 0,6.07513 4.92487,11 11,11 6.07514,0 11,-4.92487 11,-11 0,-6.07514 -4.92486,-11 -11,-11 -6.07513,0 -11,4.92486 -11,11 z" />
      <path
         style="fill:#000000;fill-opacity:0;stroke:#323c6b;stroke-width:0.881;stroke-linecap:round;stroke-dasharray:none;stroke-opacity:1"
         id="path3-5-1"
         sodipodi:type="arc"
         sodipodi:cx="44.170456"
         sodipodi:cy="96.280586"
         sodipodi:rx="7"
         sodipodi:ry="7"
         d="m 51.170456,96.280586 c 0,3.865994 -3.134007,7.000004 -7,7.000004 -3.865993,0 -7,-3.13401 -7,-7.000004 0,-3.865993 3.134007,-7 7,-7 3.865993,0 7,3.134007 7,7 z m 109.325764,0 c 0,3.865994 3.134,7.000004 7,7.000004 3.86599,0 7,-3.13401 7,-7.000004 0,-3.865993 -3.13401,-7 -7,-7 -3.866,0 -7,3.134007 -7,7 z" />
      <path
         style="fill:#000000;fill-opacity:0;stroke:#323c6b;stroke-width:0.881;stroke-linecap:round;stroke-dasharray:none;stroke-opacity:1"
         id="path3-5-1-7"
         sodipodi:type="arc"
         sodipodi:cx="50.37793"
         sodipodi:cy="82.999054"
         sodipodi:rx="4"
         sodipodi:ry="4"
         d="m 54.37793,82.999054 c 0,2.209139 -1.790861,4 -4,4 -2.209139,0 -4,-1.790861 -4,-4 0,-2.209139 1.790861,-4 4,-4 2.209139,0 4,1.790861 4,4 z m 102.91081,0 c 0,2.209139 1.79086,4 4,4 2.20914,0 4,-1.790861 4,-4 0,-2.209139 -1.79086,-4 -4,-4 -2.20914,0 -4,1.790861 -4,4 z" />
      <path
         style="fill:#000000;fill-opacity:0;stroke:#323c6b;stroke-width:0.881;stroke-linecap:round;stroke-dasharray:none;stroke-opacity:1"
         id="path3-5-1-7-2"
         sodipodi:type="arc"
         sodipodi:cx="54.821396"
         sodipodi:cy="73.928856"
         sodipodi:rx="2.5"
         sodipodi:ry="2.5"
         d="m 57.321396,73.928856 c 0,1.380712 -1.119288,2.5 -2.5,2.5 -1.380712,0 -2.5,-1.119288 -2.5,-2.5 0,-1.380712 1.119288,-2.5 2.5,-2.5 1.380712,0 2.5,1.119288 2.5,2.5 z m 97.023884,0 c 0,1.380712 1.11928,2.5 2.5,2.5 1.38071,0 2.5,-1.119288 2.5,-2.5 0,-1.380712 -1.11929,-2.5 -2.5,-2.5 -1.38072,0 -2.5,1.119288 -2.5,2.5 z" />
      <path
         style="fill:#000000;fill-opacity:0;stroke:#323c6b;stroke-width:0.881;stroke-linecap:round;stroke-dasharray:none;stroke-opacity:1"
         id="path3-5-1-7-2-1"
         sodipodi:type="arc"
         sodipodi:cx="60.758961"
         sodipodi:cy="63.722183"
         sodipodi:rx="1"
         sodipodi:ry="1"
         d="m 61.758961,63.722183 c 0,0.552285 -0.447716,1 -1,1 -0.552285,0 -1,-0.447715 -1,-1 0,-0.552285 0.447715,-1 1,-1 0.552284,0 1,0.447715 1,1 z m 88.148749,0 c 0,0.552285 0.44772,1 1,1 0.55229,0 1,-0.447715 1,-1 0,-0.552285 -0.44771,-1 -1,-1 -0.55228,0 -1,0.447715 -1,1 z" />
      <path
         style="fill:#000000;fill-opacity:0;stroke:#323c6b;stroke-width:0.881;stroke-linecap:round;stroke-dasharray:none;stroke-opacity:1"
         id="path3-5-1-7-2-1-7"
         sodipodi:type="arc"
         sodipodi:cx="58.541363"
         sodipodi:cy="67.710396"
         sodipodi:rx="1.5"
         sodipodi:ry="1.5"
         d="m 60.041363,67.710396 c 0,0.828427 -0.671573,1.5 -1.5,1.5 -0.828427,0 -1.5,-0.671573 -1.5,-1.5 0,-0.828427 0.671573,-1.5 1.5,-1.5 0.828427,0 1.5,0.671573 1.5,1.5 z m 91.583947,0 c 0,0.828427 0.67157,1.5 1.5,1.5 0.82843,0 1.5,-0.671573 1.5,-1.5 0,-0.828427 -0.67157,-1.5 -1.5,-1.5 -0.82843,0 -1.5,0.671573 -1.5,1.5 z" />
    </g>
    <ellipse
       style="fill:#051230;fill-opacity:1;stroke:#323c6b;stroke-width:1.13517;stroke-linecap:round;stroke-dasharray:none;stroke-opacity:1"
       id="path5"
       cx="100.71395"
       cy="135.0452"
       rx="51.540001"
       ry="51.540176" />
    <text
       xml:space="preserve"
       transform="matrix(0.34069489,0,0,0.34069489,-26.411873,-19.710149)"
       id="text7"
       style="font-size:26.6667px;font-family:Calibri;-inkscape-font-specification:Calibri;text-align:start;writing-mode:lr-tb;direction:ltr;white-space:pre;shape-inside:url(#rect7);fill:#051230;fill-opacity:1;stroke:#323c6b;stroke-width:3.32976;stroke-linecap:round;stroke-linejoin:miter;stroke-dasharray:none;stroke-opacity:1"><tspan
         x="231.12695"
         y="418.68297"
         id="tspan1">CREATURE CONTAINMENT</tspan></text>
    <text
       xml:space="preserve"
       style="font-size:15.9456px;font-family:Calibri;-inkscape-font-specification:Calibri;text-align:start;writing-mode:lr-tb;direction:ltr;text-anchor:start;fill:#051230;fill-opacity:1;stroke:#323c6b;stroke-width:1.99106;stroke-linecap:round;stroke-linejoin:miter;stroke-dasharray:none;stroke-opacity:1"
       x="50.817535"
       y="142.50673"
       id="text8"><tspan
         sodipodi:role="line"
         id="tspan8"
         style="stroke-width:1.99107"
         x="50.817535"
         y="142.50673">ORGANIZATION</tspan></text>
  </g>
</svg>
