# Blender 4.3.2
# www.blender.org
mtllib pasta shot.mtl
o Cylinder
v 0.000000 -1.324519 -0.367213
v 0.000000 1.316481 -0.367212
v 0.066081 -1.324599 -0.332210
v 0.066081 1.324820 -0.332210
v 0.140526 -1.324519 -0.339260
v 0.140526 1.316463 -0.339259
v 0.188182 -1.324599 -0.281634
v 0.188182 1.324786 -0.281634
v 0.259658 -1.324519 -0.259658
v 0.259659 1.316410 -0.259658
v 0.281634 -1.324599 -0.188182
v 0.281634 1.324724 -0.188181
v 0.339260 -1.324519 -0.140526
v 0.339260 1.316330 -0.140525
v 0.332210 -1.324599 -0.066081
v 0.332210 1.324643 -0.066080
v 0.367213 -1.324519 0.000000
v 0.367213 1.316237 0.000001
v 0.332210 -1.324599 0.066081
v 0.332210 1.324555 0.066081
v 0.339260 -1.324519 0.140526
v 0.339260 1.321715 0.140527
v 0.281634 -1.324599 0.188182
v 0.281634 1.324474 0.188182
v 0.259658 -1.324519 0.259658
v 0.259659 1.321636 0.259659
v 0.188182 -1.324599 0.281634
v 0.188182 1.324412 0.281634
v 0.140526 -1.324519 0.339260
v 0.140526 1.321583 0.339261
v 0.066081 -1.324599 0.332210
v 0.066081 1.324378 0.332210
v 0.000000 -1.324519 0.367213
v 0.000000 1.321564 0.367213
v -0.066081 -1.324599 0.332210
v -0.066081 1.324378 0.332210
v -0.140526 -1.324519 0.339260
v -0.140526 1.321583 0.339261
v -0.188182 -1.324599 0.281634
v -0.188182 1.324412 0.281634
v -0.259658 -1.324519 0.259658
v -0.259659 1.321636 0.259659
v -0.281634 -1.324599 0.188182
v -0.281634 1.324474 0.188182
v -0.339260 -1.324519 0.140526
v -0.339260 1.321715 0.140527
v -0.332210 -1.324599 0.066081
v -0.332210 1.324555 0.066081
v -0.367213 -1.324519 0.000000
v -0.367213 1.316237 0.000001
v -0.332210 -1.324599 -0.066081
v -0.332210 1.324643 -0.066080
v -0.339260 -1.324519 -0.140526
v -0.339260 1.316330 -0.140525
v -0.281634 -1.324599 -0.188182
v -0.281634 1.324724 -0.188181
v -0.259658 -1.324519 -0.259658
v -0.259658 1.316410 -0.259658
v -0.188182 -1.324599 -0.281634
v -0.188182 1.324786 -0.281634
v -0.140526 -1.324519 -0.339260
v -0.140526 1.316463 -0.339259
v -0.066081 -1.324599 -0.332210
v -0.066081 1.324820 -0.332210
v 0.000000 -1.324519 -0.426754
v 0.076795 -1.324599 -0.386076
v 0.076795 1.324599 -0.386076
v 0.000000 1.316237 -0.426754
v 0.163312 -1.324519 -0.394269
v 0.163312 1.316237 -0.394269
v 0.218695 -1.324599 -0.327299
v 0.218695 1.324599 -0.327299
v 0.301761 -1.324519 -0.301761
v 0.301761 1.316237 -0.301761
v 0.327299 -1.324599 -0.218695
v 0.327299 1.324599 -0.218695
v 0.394269 -1.324519 -0.163312
v 0.394269 1.316237 -0.163312
v 0.386076 -1.324599 -0.076795
v 0.386076 1.324599 -0.076795
v 0.426754 -1.324519 0.000000
v 0.426754 1.316237 0.000000
v 0.386076 -1.324599 0.076795
v 0.386076 1.324599 0.076795
v 0.394269 -1.324519 0.163312
v 0.394269 1.321809 0.163312
v 0.327299 -1.324599 0.218695
v 0.327299 1.324599 0.218695
v 0.301761 -1.324519 0.301761
v 0.301761 1.321809 0.301761
v 0.218695 -1.324599 0.327299
v 0.218695 1.324599 0.327299
v 0.163312 -1.324519 0.394269
v 0.163312 1.321809 0.394269
v 0.076795 -1.324599 0.386076
v 0.076795 1.324599 0.386076
v 0.000000 -1.324519 0.426754
v 0.000000 1.321809 0.426754
v -0.076795 -1.324599 0.386076
v -0.076795 1.324599 0.386076
v -0.163312 -1.324519 0.394269
v -0.163312 1.321809 0.394269
v -0.218695 -1.324599 0.327299
v -0.218695 1.324599 0.327299
v -0.301761 -1.324519 0.301761
v -0.301761 1.321809 0.301761
v -0.327299 -1.324599 0.218695
v -0.327299 1.324599 0.218695
v -0.394269 -1.324519 0.163312
v -0.394269 1.321809 0.163312
v -0.386076 -1.324599 0.076795
v -0.386076 1.324599 0.076795
v -0.426754 -1.324519 0.000000
v -0.426754 1.316237 0.000000
v -0.386076 -1.324599 -0.076795
v -0.386076 1.324599 -0.076795
v -0.394269 -1.324519 -0.163312
v -0.394269 1.316237 -0.163312
v -0.327299 -1.324599 -0.218695
v -0.327299 1.324599 -0.218695
v -0.301761 -1.324519 -0.301761
v -0.301761 1.316237 -0.301761
v -0.218695 -1.324599 -0.327299
v -0.218695 1.324599 -0.327299
v -0.163312 -1.324519 -0.394269
v -0.163312 1.316237 -0.394269
v -0.076795 -1.324599 -0.386076
v -0.076795 1.324599 -0.386076
vn 0.4681 -0.0000 -0.8837
vn -0.0943 -0.0000 -0.9955
vn 0.7706 -0.0000 -0.6373
vn 0.2939 -0.0000 -0.9558
vn 0.9558 -0.0000 -0.2939
vn 0.6373 -0.0000 -0.7706
vn 0.9955 -0.0000 0.0943
vn 0.8837 -0.0000 -0.4681
vn 0.8837 -0.0000 0.4681
vn 0.9955 -0.0000 -0.0943
vn 0.6373 -0.0000 0.7706
vn 0.9558 -0.0000 0.2939
vn 0.2939 -0.0000 0.9558
vn 0.7706 -0.0000 0.6373
vn -0.0943 -0.0000 0.9955
vn 0.4681 -0.0000 0.8837
vn -0.4681 -0.0000 0.8837
vn 0.0943 -0.0000 0.9955
vn -0.7706 -0.0000 0.6373
vn -0.2939 -0.0000 0.9558
vn -0.9558 -0.0000 0.2939
vn -0.6373 -0.0000 0.7706
vn -0.9955 -0.0000 -0.0943
vn -0.8837 -0.0000 0.4681
vn -0.8837 -0.0000 -0.4681
vn -0.9955 -0.0000 0.0943
vn -0.6373 -0.0000 -0.7706
vn -0.9558 -0.0000 -0.2939
vn -0.2939 -0.0000 -0.9558
vn -0.7706 -0.0000 -0.6373
vn 0.0943 -0.0000 -0.9955
vn -0.4681 -0.0000 -0.8837
vn -0.0011 -1.0000 -0.0001
vn -0.1086 0.9940 -0.0143
vn 0.0010 -1.0000 0.0003
vn 0.1059 0.9940 0.0285
vn -0.0009 -1.0000 -0.0005
vn -0.0951 0.9940 -0.0544
vn 0.0008 -1.0000 0.0007
vn 0.0868 0.9939 0.0678
vn -0.0007 -1.0000 -0.0008
vn -0.0681 0.9939 -0.0863
vn 0.0005 -1.0000 0.0009
vn 0.0535 0.9939 0.0969
vn -0.0003 -1.0000 -0.0010
vn -0.0313 0.9939 -0.1059
vn 0.0001 -1.0000 0.0011
vn 0.0109 0.9938 0.1109
vn 0.0001 -1.0000 -0.0011
vn 0.0101 0.9938 -0.1107
vn -0.0003 -1.0000 0.0010
vn -0.0124 0.9993 0.0361
vn 0.0005 -1.0000 -0.0009
vn 0.0160 0.9993 -0.0344
vn -0.0007 -1.0000 0.0008
vn -0.0267 0.9992 0.0282
vn 0.0008 -1.0000 -0.0007
vn 0.0277 0.9993 -0.0270
vn -0.0009 -1.0000 0.0005
vn -0.0362 0.9992 0.0151
vn 0.0010 -1.0000 -0.0003
vn 0.0361 0.9992 -0.0152
vn -0.0011 -1.0000 0.0001
vn -0.0394 0.9992 -0.0004
vn 0.0011 -1.0000 0.0001
vn 0.0394 0.9992 -0.0004
vn -0.0010 -1.0000 -0.0003
vn -0.0361 0.9992 -0.0152
vn 0.0009 -1.0000 0.0005
vn 0.0362 0.9992 0.0151
vn -0.0008 -1.0000 -0.0007
vn -0.0277 0.9993 -0.0270
vn 0.0007 -1.0000 0.0008
vn 0.0267 0.9992 0.0282
vn -0.0005 -1.0000 -0.0009
vn -0.0160 0.9993 -0.0344
vn 0.0003 -1.0000 0.0010
vn 0.0124 0.9993 0.0361
vn -0.0001 -1.0000 -0.0011
vn -0.0101 0.9938 -0.1107
vn -0.0001 -1.0000 0.0011
vn -0.0109 0.9938 0.1109
vn 0.0003 -1.0000 -0.0010
vn 0.0313 0.9939 -0.1059
vn -0.0005 -1.0000 0.0009
vn -0.0535 0.9939 0.0969
vn 0.0007 -1.0000 -0.0008
vn 0.0681 0.9939 -0.0863
vn -0.0008 -1.0000 0.0007
vn -0.0868 0.9939 0.0678
vn 0.0009 -1.0000 -0.0005
vn 0.0951 0.9940 -0.0544
vn -0.0010 -1.0000 0.0003
vn -0.1059 0.9940 0.0285
vn 0.0011 -1.0000 -0.0001
vn 0.1086 0.9940 -0.0143
vt 1.000000 0.500000
vt 1.000000 1.000000
vt 0.968750 1.000000
vt 0.968750 0.500000
vt 0.937500 1.000000
vt 0.937500 0.500000
vt 0.906250 1.000000
vt 0.906250 0.500000
vt 0.875000 1.000000
vt 0.875000 0.500000
vt 0.843750 1.000000
vt 0.843750 0.500000
vt 0.812500 1.000000
vt 0.812500 0.500000
vt 0.781250 1.000000
vt 0.781250 0.500000
vt 0.750000 1.000000
vt 0.750000 0.500000
vt 0.718750 1.000000
vt 0.718750 0.500000
vt 0.687500 1.000000
vt 0.687500 0.500000
vt 0.656250 1.000000
vt 0.656250 0.500000
vt 0.625000 1.000000
vt 0.625000 0.500000
vt 0.593750 1.000000
vt 0.593750 0.500000
vt 0.562500 1.000000
vt 0.562500 0.500000
vt 0.531250 1.000000
vt 0.531250 0.500000
vt 0.500000 1.000000
vt 0.500000 0.500000
vt 0.468750 1.000000
vt 0.468750 0.500000
vt 0.437500 1.000000
vt 0.437500 0.500000
vt 0.406250 1.000000
vt 0.406250 0.500000
vt 0.375000 1.000000
vt 0.375000 0.500000
vt 0.343750 1.000000
vt 0.343750 0.500000
vt 0.312500 1.000000
vt 0.312500 0.500000
vt 0.281250 1.000000
vt 0.281250 0.500000
vt 0.250000 1.000000
vt 0.250000 0.500000
vt 0.218750 1.000000
vt 0.218750 0.500000
vt 0.187500 1.000000
vt 0.187500 0.500000
vt 0.156250 1.000000
vt 0.156250 0.500000
vt 0.125000 1.000000
vt 0.125000 0.500000
vt 0.093750 1.000000
vt 0.093750 0.500000
vt 0.062500 1.000000
vt 0.062500 0.500000
vt 0.211030 0.445916
vt 0.168253 0.447355
vt 0.668253 0.447354
vt 0.711030 0.445917
vt 0.031250 1.000000
vt 0.031250 0.500000
vt 0.000000 1.000000
vt 0.000000 0.500000
vt 0.250000 0.463615
vt 0.750000 0.463615
vt 0.788970 0.445917
vt 0.750000 0.490000
vt 0.796822 0.485388
vt 0.288970 0.445916
vt 0.296822 0.485388
vt 0.250000 0.490000
vt 0.831747 0.447354
vt 0.841844 0.471731
vt 0.331747 0.447355
vt 0.341844 0.471731
vt 0.860978 0.416091
vt 0.883337 0.449553
vt 0.360978 0.416089
vt 0.383337 0.449553
vt 0.901048 0.401048
vt 0.919706 0.419706
vt 0.401049 0.401049
vt 0.419706 0.419706
vt 0.916091 0.360978
vt 0.949553 0.383337
vt 0.416090 0.360977
vt 0.449553 0.383337
vt 0.947354 0.331747
vt 0.971731 0.341844
vt 0.447354 0.331747
vt 0.471731 0.341844
vt 0.945917 0.288970
vt 0.985388 0.296822
vt 0.445917 0.288969
vt 0.485388 0.296822
vt 0.963615 0.250000
vt 0.990000 0.250000
vt 0.463615 0.250000
vt 0.490000 0.250000
vt 0.945917 0.211030
vt 0.985388 0.203178
vt 0.445917 0.211029
vt 0.485388 0.203178
vt 0.947354 0.168253
vt 0.971731 0.158156
vt 0.447354 0.168253
vt 0.471731 0.158156
vt 0.916091 0.139022
vt 0.949553 0.116663
vt 0.416091 0.139021
vt 0.449553 0.116663
vt 0.901048 0.098952
vt 0.919706 0.080294
vt 0.401049 0.098952
vt 0.419706 0.080294
vt 0.860978 0.083909
vt 0.883337 0.050447
vt 0.360978 0.083909
vt 0.383337 0.050447
vt 0.831747 0.052646
vt 0.841844 0.028269
vt 0.331747 0.052646
vt 0.341844 0.028269
vt 0.788970 0.054083
vt 0.796822 0.014612
vt 0.288970 0.054082
vt 0.296822 0.014612
vt 0.750000 0.036385
vt 0.750000 0.010000
vt 0.250000 0.036385
vt 0.250000 0.010000
vt 0.711030 0.054083
vt 0.703178 0.014612
vt 0.211030 0.054082
vt 0.203178 0.014612
vt 0.668253 0.052646
vt 0.658156 0.028269
vt 0.168253 0.052646
vt 0.158156 0.028269
vt 0.639022 0.083909
vt 0.616663 0.050447
vt 0.139022 0.083909
vt 0.116663 0.050447
vt 0.598952 0.098951
vt 0.580294 0.080294
vt 0.098951 0.098952
vt 0.080294 0.080294
vt 0.583910 0.139022
vt 0.550447 0.116663
vt 0.083909 0.139021
vt 0.050447 0.116663
vt 0.552646 0.168253
vt 0.528269 0.158156
vt 0.052646 0.168253
vt 0.028269 0.158156
vt 0.554083 0.211030
vt 0.514612 0.203178
vt 0.054083 0.211029
vt 0.014612 0.203178
vt 0.536385 0.250000
vt 0.510000 0.250000
vt 0.036385 0.250000
vt 0.010000 0.250000
vt 0.554083 0.288970
vt 0.514612 0.296822
vt 0.054083 0.288970
vt 0.014612 0.296822
vt 0.552646 0.331747
vt 0.528269 0.341844
vt 0.052646 0.331747
vt 0.028269 0.341844
vt 0.583909 0.360978
vt 0.550447 0.383337
vt 0.083909 0.360977
vt 0.050447 0.383337
vt 0.598952 0.401048
vt 0.580294 0.419706
vt 0.098951 0.401049
vt 0.080294 0.419706
vt 0.639022 0.416091
vt 0.616663 0.449553
vt 0.139022 0.416089
vt 0.116663 0.449553
vt 0.658156 0.471731
vt 0.158156 0.471731
vt 0.703178 0.485388
vt 0.203178 0.485388
s 0
usemtl Material
f 65/1/1 68/2/1 67/3/1 66/4/1
f 66/4/2 67/3/2 70/5/2 69/6/2
f 69/6/3 70/5/3 72/7/3 71/8/3
f 71/8/4 72/7/4 74/9/4 73/10/4
f 73/10/5 74/9/5 76/11/5 75/12/5
f 75/12/6 76/11/6 78/13/6 77/14/6
f 77/14/7 78/13/7 80/15/7 79/16/7
f 79/16/8 80/15/8 82/17/8 81/18/8
f 81/18/9 82/17/9 84/19/9 83/20/9
f 83/20/10 84/19/10 86/21/10 85/22/10
f 85/22/11 86/21/11 88/23/11 87/24/11
f 87/24/12 88/23/12 90/25/12 89/26/12
f 89/26/13 90/25/13 92/27/13 91/28/13
f 91/28/14 92/27/14 94/29/14 93/30/14
f 93/30/15 94/29/15 96/31/15 95/32/15
f 95/32/16 96/31/16 98/33/16 97/34/16
f 97/34/17 98/33/17 100/35/17 99/36/17
f 99/36/18 100/35/18 102/37/18 101/38/18
f 101/38/19 102/37/19 104/39/19 103/40/19
f 103/40/20 104/39/20 106/41/20 105/42/20
f 105/42/21 106/41/21 108/43/21 107/44/21
f 107/44/22 108/43/22 110/45/22 109/46/22
f 109/46/23 110/45/23 112/47/23 111/48/23
f 111/48/24 112/47/24 114/49/24 113/50/24
f 113/50/25 114/49/25 116/51/25 115/52/25
f 115/52/26 116/51/26 118/53/26 117/54/26
f 117/54/27 118/53/27 120/55/27 119/56/27
f 119/56/28 120/55/28 122/57/28 121/58/28
f 121/58/29 122/57/29 124/59/29 123/60/29
f 123/60/30 124/59/30 126/61/30 125/62/30
f 64/63/15 62/64/15 61/65/15 63/66/15
f 125/62/31 126/61/31 128/67/31 127/68/31
f 127/68/32 128/67/32 68/69/32 65/70/32
f 2/71/16 64/63/16 63/66/16 1/72/16
f 3/73/33 1/72/33 65/74/33 66/75/33
f 2/71/34 4/76/34 67/77/34 68/78/34
f 5/79/35 3/73/35 66/75/35 69/80/35
f 4/76/36 6/81/36 70/82/36 67/77/36
f 7/83/37 5/79/37 69/80/37 71/84/37
f 6/81/38 8/85/38 72/86/38 70/82/38
f 9/87/39 7/83/39 71/84/39 73/88/39
f 8/85/40 10/89/40 74/90/40 72/86/40
f 11/91/41 9/87/41 73/88/41 75/92/41
f 10/89/42 12/93/42 76/94/42 74/90/42
f 13/95/43 11/91/43 75/92/43 77/96/43
f 12/93/44 14/97/44 78/98/44 76/94/44
f 15/99/45 13/95/45 77/96/45 79/100/45
f 14/97/46 16/101/46 80/102/46 78/98/46
f 17/103/47 15/99/47 79/100/47 81/104/47
f 16/101/48 18/105/48 82/106/48 80/102/48
f 19/107/49 17/103/49 81/104/49 83/108/49
f 18/105/50 20/109/50 84/110/50 82/106/50
f 21/111/51 19/107/51 83/108/51 85/112/51
f 20/109/52 22/113/52 86/114/52 84/110/52
f 23/115/53 21/111/53 85/112/53 87/116/53
f 22/113/54 24/117/54 88/118/54 86/114/54
f 25/119/55 23/115/55 87/116/55 89/120/55
f 24/117/56 26/121/56 90/122/56 88/118/56
f 27/123/57 25/119/57 89/120/57 91/124/57
f 26/121/58 28/125/58 92/126/58 90/122/58
f 29/127/59 27/123/59 91/124/59 93/128/59
f 28/125/60 30/129/60 94/130/60 92/126/60
f 31/131/61 29/127/61 93/128/61 95/132/61
f 30/129/62 32/133/62 96/134/62 94/130/62
f 33/135/63 31/131/63 95/132/63 97/136/63
f 32/133/64 34/137/64 98/138/64 96/134/64
f 35/139/65 33/135/65 97/136/65 99/140/65
f 34/137/66 36/141/66 100/142/66 98/138/66
f 37/143/67 35/139/67 99/140/67 101/144/67
f 36/141/68 38/145/68 102/146/68 100/142/68
f 39/147/69 37/143/69 101/144/69 103/148/69
f 38/145/70 40/149/70 104/150/70 102/146/70
f 41/151/71 39/147/71 103/148/71 105/152/71
f 40/149/72 42/153/72 106/154/72 104/150/72
f 43/155/73 41/151/73 105/152/73 107/156/73
f 42/153/74 44/157/74 108/158/74 106/154/74
f 45/159/75 43/155/75 107/156/75 109/160/75
f 44/157/76 46/161/76 110/162/76 108/158/76
f 47/163/77 45/159/77 109/160/77 111/164/77
f 46/161/78 48/165/78 112/166/78 110/162/78
f 49/167/79 47/163/79 111/164/79 113/168/79
f 48/165/80 50/169/80 114/170/80 112/166/80
f 51/171/81 49/167/81 113/168/81 115/172/81
f 50/169/82 52/173/82 116/174/82 114/170/82
f 53/175/83 51/171/83 115/172/83 117/176/83
f 52/173/84 54/177/84 118/178/84 116/174/84
f 55/179/85 53/175/85 117/176/85 119/180/85
f 54/177/86 56/181/86 120/182/86 118/178/86
f 57/183/87 55/179/87 119/180/87 121/184/87
f 56/181/88 58/185/88 122/186/88 120/182/88
f 59/187/89 57/183/89 121/184/89 123/188/89
f 58/185/90 60/189/90 124/190/90 122/186/90
f 61/65/91 59/187/91 123/188/91 125/191/91
f 60/189/92 62/64/92 126/192/92 124/190/92
f 63/66/93 61/65/93 125/191/93 127/193/93
f 62/64/94 64/63/94 128/194/94 126/192/94
f 1/72/95 63/66/95 127/193/95 65/74/95
f 64/63/96 2/71/96 68/78/96 128/194/96
f 62/64/14 60/189/14 59/187/14 61/65/14
f 60/189/13 58/185/13 57/183/13 59/187/13
f 58/185/12 56/181/12 55/179/12 57/183/12
f 56/181/11 54/177/11 53/175/11 55/179/11
f 54/177/10 52/173/10 51/171/10 53/175/10
f 52/173/9 50/169/9 49/167/9 51/171/9
f 50/169/8 48/165/8 47/163/8 49/167/8
f 48/165/7 46/161/7 45/159/7 47/163/7
f 46/161/6 44/157/6 43/155/6 45/159/6
f 44/157/5 42/153/5 41/151/5 43/155/5
f 42/153/4 40/149/4 39/147/4 41/151/4
f 40/149/3 38/145/3 37/143/3 39/147/3
f 38/145/2 36/141/2 35/139/2 37/143/2
f 36/141/1 34/137/1 33/135/1 35/139/1
f 34/137/32 32/133/32 31/131/32 33/135/32
f 32/133/31 30/129/31 29/127/31 31/131/31
f 30/129/30 28/125/30 27/123/30 29/127/30
f 28/125/29 26/121/29 25/119/29 27/123/29
f 26/121/28 24/117/28 23/115/28 25/119/28
f 24/117/27 22/113/27 21/111/27 23/115/27
f 22/113/26 20/109/26 19/107/26 21/111/26
f 20/109/25 18/105/25 17/103/25 19/107/25
f 18/105/24 16/101/24 15/99/24 17/103/24
f 16/101/23 14/97/23 13/95/23 15/99/23
f 14/97/22 12/93/22 11/91/22 13/95/22
f 12/93/21 10/89/21 9/87/21 11/91/21
f 10/89/20 8/85/20 7/83/20 9/87/20
f 8/85/19 6/81/19 5/79/19 7/83/19
f 6/81/18 4/76/18 3/73/18 5/79/18
f 4/76/17 2/71/17 1/72/17 3/73/17
